<svg xmlns="http://www.w3.org/2000/svg" version="1.1" xmlns:xlink="http://www.w3.org/1999/xlink" xmlns:svgjs="http://svgjs.dev/svgjs" width="100%" height="100%" viewBox="0 0 1000 600"><rect width="1000" height="600" x="0" y="0" fill="#6e0093 "/><g><rect width="333.3333333333333" height="333.3333333333333" rx="13.333333333333334" ry="13.333333333333334" y="217.35244519233703" fill="#ff3366" transform="matrix(0.6405978913652742,0,0,0.6405978913652742,0,53.99817162674992)" x="195.1302032470703"/><path d="M268.9472834376138 451.9599472504097L252.984932725377 459.0191095689981Q250.27651942763285 453.6310958809326 248.1155513709221 443.97877189429124Q245.92577040678853 434.3264479076499 244.57156375791646 423.75211088347857Q243.24617001646718 413.17777385930725 243.24617001646718 404.879656521538L243.24617001646718 404.879656521538L263.99146336089046 404.879656521538Q267.3049477145136 422.51315586429774 277.1589620531147 432.4536089251672Q287.0129763917157 442.42287489345955 300.06522345424867 442.42287489345955L300.06522345424867 442.42287489345955Q306.51931471695815 442.42287489345955 310.14974105223223 439.8297132254066Q313.78016738750625 437.2365515573537 315.42250311060644 433.49087359238837Q317.09365174112946 429.7740085348459 317.09365174112946 426.46052418122275L317.09365174112946 426.46052418122275Q317.09365174112946 419.6030522145939 312.51239946090266 414.6184192304478Q307.9599600880986 409.63378624630167 301.0160493992014 405.5999792071082Q294.0721387103042 401.56617216791483 287.0129763917157 398.22387490686884L287.0129763917157 398.22387490686884Q268.7455930856541 389.32068651322055 258.17125606148284 377.7955235440965Q247.59691903731152 366.29917348239525 247.59691903731152 348.8673644915952L247.59691903731152 348.8673644915952Q247.59691903731152 336.21849813298155 253.8205070406385 327.40174846160164Q260.04409504396546 318.5849987902218 270.5031804384455 313.8020561580353Q280.99107874034837 309.01911352584887 294.0721387103042 309.01911352584887L294.0721387103042 309.01911352584887Q300.06522345424867 309.01911352584887 308.27690206974955 310.28688145245246Q316.4597677778276 311.5258364716333 321.64609111393344 314.4359401213371L321.64609111393344 314.4359401213371L339.2795904566932 309.01911352584887Q342.18969410639704 313.8020561580353 343.3422104033094 321.581541162194Q344.46591379279903 329.3610261663527 344.7828557744499 337.659143504122Q345.0997977561009 345.95726084189135 345.0997977561009 352.81473280852015L345.0997977561009 352.81473280852015L345.0997977561009 355.92652681018365L327.8696791172604 355.92652681018365Q323.51893009641606 338.2930274674239 315.62419346256615 331.9541878344057Q307.75826973613897 325.61534820138746 298.6245780831082 325.61534820138746L298.6245780831082 325.61534820138746Q290.1247703933792 325.61534820138746 286.062150446763 330.51354246326514Q282.02834340756954 335.38292381772004 282.02834340756954 342.6437764882682L282.02834340756954 342.6437764882682Q282.02834340756954 349.2707451955145 285.6587697428437 353.8519974757413Q289.2891960781177 358.4044368485453 295.1094033775254 361.8331728318597Q300.9007977695102 365.2619088151741 307.3260761247968 368.5753931687973L307.3260761247968 368.5753931687973Q314.3852384433853 371.88887752242044 322.0782847252756 376.1531878209963Q329.74251809974305 380.38868521214937 336.2830480847209 386.00720215959734Q342.8235780696989 391.59690619962254 346.85738510889223 399.26113957409Q350.8911921480857 406.9541858559803 350.8911921480857 417.3268325281919L350.8911921480857 417.3268325281919Q350.8911921480857 428.73674386762474 345.0997977561009 438.15856459488367Q339.2795904566932 447.6091982295653 328.50356308056223 453.31415389928173Q317.69872279700843 459.0191095689981 302.3702560480735 459.0191095689981L302.3702560480735 459.0191095689981Q295.31109372948504 459.0191095689981 286.8977247620245 457.4632125681664Q278.51316870198673 455.90731556733465 268.9472834376138 451.9599472504097L268.9472834376138 451.9599472504097ZM428.0809711337939 455.90731556733465L367.71793008300676 455.90731556733465Q362.9349874508203 450.51930187926916 362.9349874508203 442.6245652454192L362.9349874508203 442.6245652454192Q369.99414976940875 442.6245652454192 372.99069214138103 440.3483455590172Q376.0160474207761 438.07212587261523 376.0160474207761 432.25191857320755L376.0160474207761 432.25191857320755L376.0160474207761 334.74903985441824Q376.0160474207761 328.9576454624334 372.99069214138103 326.5661741463402Q369.99414976940875 324.17470283024693 362.9349874508203 324.17470283024693L362.9349874508203 324.17470283024693Q362.9349874508203 320.65952812466406 364.1739424700011 317.2307921413497Q365.412897489182 313.8020561580353 367.48742682362433 311.09364286029114L367.48742682362433 311.09364286029114Q387.8293394641282 311.09364286029114 400.0748251188225 310.3733201747209Q412.3203107735168 309.65299748915066 421.0218088152054 309.65299748915066L421.0218088152054 309.65299748915066Q443.00605717880956 309.65299748915066 455.9718655190741 315.04101117721615Q468.9376738593386 320.42902486528163 474.64262952905506 330.9169231671845Q480.3475851987714 341.4048214690874 480.3475851987714 356.53159786606267L480.3475851987714 356.53159786606267Q480.3475851987714 370.01603853993777 473.6053648618339 381.0225691754512Q466.86314452489626 392.00028690354185 453.2922651287528 398.33912653656006Q439.6925728251864 404.6779661695783 418.74558912880343 404.6779661695783L418.74558912880343 404.6779661695783L410.015278179692 404.6779661695783L410.015278179692 422.9165365682171Q410.015278179692 431.0129635540267 411.8016784399062 435.2772738526026Q413.5592657926976 439.5127712437557 418.5438987768438 441.06866824458746Q423.49971885356706 442.6245652454192 432.6334105065979 442.6245652454192L432.6334105065979 442.6245652454192Q432.6334105065979 450.7209922312288 428.0809711337939 455.90731556733465L428.0809711337939 455.90731556733465ZM415.4321047751803 388.08173149403973L415.4321047751803 388.08173149403973Q425.1708674840901 388.08173149403973 430.87582315380644 385.0563762146447Q436.5807788235229 382.0598338426724 439.4908824732267 377.2768912104859Q442.40098612293053 372.52276148572224 443.3229991604605 366.81780581600583Q444.2450121979904 361.1128501462895 444.2450121979904 355.92652681018365L444.2450121979904 355.92652681018365Q444.2450121979904 348.0317901763337 441.88235378931995 341.1743182097049Q439.4908824732267 334.3456591504989 433.7859268035103 330.1966004816142Q428.0809711337939 326.04754181272955 417.70832446158227 326.04754181272955L417.70832446158227 326.04754181272955Q413.12707218135546 326.04754181272955 410.015278179692 326.88311612799106L410.015278179692 326.88311612799106L410.015278179692 387.64953788269753Q411.48473645825527 387.8512282346572 412.72369147743615 387.96647986434846Q413.96264649661697 388.08173149403973 415.4321047751803 388.08173149403973Z " fill="#6e0093 " transform="matrix(0.6405978913652742,0,0,0.6405978913652742,0,53.99817162674992)"/><path d="M629.787999770141 425.61854641030214L618.6141397552146 430.5600549006577Q616.7182140487109 426.78837291005976 615.2055073679899 420.0316164028389Q613.6726312648591 413.2748598956181 612.7246684116071 405.87268187128956Q611.7968749807649 398.4705038469611 611.7968749807649 392.6617101929921L611.7968749807649 392.6617101929921L626.3188591156874 392.6617101929921Q628.638342692793 405.00539670767614 635.5362851568811 411.9638474389931Q642.4342276209693 418.94246759271977 651.5709759725246 418.94246759271977L651.5709759725246 418.94246759271977Q656.0889265922783 418.94246759271977 658.6302738158897 417.12721957585444Q661.1716210395011 415.3119715589891 662.3212781168492 412.68994664573927Q663.4911046166068 410.088091154899 663.4911046166068 407.7686075777933L663.4911046166068 407.7686075777933Q663.4911046166068 402.9682850443051 660.2841664534781 399.4789749674418Q657.097397712759 395.98966489057847 652.2365669120419 393.16594575323245Q647.3757361113248 390.34222661588643 642.4342276209693 388.0025736163712L642.4342276209693 388.0025736163712Q629.6468138132738 381.7702220918003 622.2446357889453 373.7024531279545Q614.8424577646167 365.65485358651836 614.8424577646167 353.4523530287016L614.8424577646167 353.4523530287016Q614.8424577646167 344.5979765908809 619.1990530050934 338.42613333353887Q623.5556482455702 332.2542900761968 630.8771485802602 328.9061659562008Q638.2188183373598 325.55804183620484 647.3757361113248 325.55804183620484L647.3757361113248 325.55804183620484Q651.5709759725246 325.55804183620484 657.3192613592648 326.44549642222785Q663.0473773235952 327.31278158584126 666.6778733573259 329.34989324921236L666.6778733573259 329.34989324921236L679.0215598720099 325.55804183620484Q681.058671535381 328.9061659562008 681.8654484317656 334.35191000679674Q682.6520559057406 339.7976540573926 682.8739195522462 345.60644771136157Q683.0957831987521 351.4152413653306 683.0957831987521 356.2155638988188L683.0957831987521 356.2155638988188L683.0957831987521 358.39386151905717L671.0344685978025 358.39386151905717Q667.9888858139508 346.0501750043731 662.4624640737164 341.61290207425793Q656.9562117558917 337.17562914414276 650.562504852044 337.17562914414276L650.562504852044 337.17562914414276Q644.6125252412077 337.17562914414276 641.768636681452 340.6044309537772Q638.9449175441059 344.01306334100207 638.9449175441059 349.0957577882249L638.9449175441059 349.0957577882249Q638.9449175441059 353.73472494243623 641.4862647677174 356.9416631055649Q644.0276119913289 360.128431846284 648.1018353180709 362.52859311302814Q652.1558892224034 364.9287543797722 656.6536704197474 367.2482379568779L656.6536704197474 367.2482379568779Q661.595178910103 369.56772153398356 666.98041469347 372.5527960506065Q672.3454810544275 375.5177011448198 676.92393994141 379.45073851469465Q681.5023988283924 383.36360646215985 684.3261179657386 388.7286728231173Q687.1498371030846 394.11390860648436 687.1498371030846 401.37490067394555L687.1498371030846 401.37490067394555Q687.1498371030846 409.3619919481529 683.0957831987521 415.9573930760968Q679.0215598720099 422.57296362645036 671.478195890814 426.566509263554Q663.9146624872087 430.5600549006577 653.1845297652937 430.5600549006577L653.1845297652937 430.5600549006577Q648.2430212749382 430.5600549006577 642.3535499313309 429.47090609053845Q636.4842480101331 428.3817572804193 629.787999770141 425.61854641030214L629.787999770141 425.61854641030214ZM731.1595168008633 430.277682986923L731.1595168008633 430.277682986923Q720.8529419495503 430.277682986923 712.865850675343 425.8404100568079Q704.8787594011357 421.4031371266927 700.4414864710204 412.7706243353777Q696.0243829633149 404.1381115440627 696.0243829633149 391.3506977363672L696.0243829633149 391.3506977363672Q696.0243829633149 377.69599876505816 700.6633501175262 368.39789503422594Q705.3023172717376 359.11996072580325 713.5919498820891 354.31963819231504Q721.8614130700311 349.51931565882677 732.6117152143555 349.51931565882677L732.6117152143555 349.51931565882677Q743.0594760225358 349.51931565882677 750.9860590295143 354.03726627858043Q758.8924726140832 358.53504747592444 763.3297455441983 367.30874622410676Q767.746849051904 376.10261439469866 767.746849051904 389.0312141592615L767.746849051904 389.0312141592615Q767.746849051904 402.52455775129357 763.1078818976927 411.762153214897Q758.4689147434813 420.9795792560908 750.1792821331297 425.61854641030214Q741.9098189451878 430.277682986923 731.1595168008633 430.277682986923ZM732.329343300621 419.8097527563331L732.329343300621 419.8097527563331Q735.3749260844727 419.8097527563331 737.61373197194 417.6314551360948Q739.8727072818167 415.45315751585645 741.1030420488032 409.58385559465864Q742.3333768157896 403.6943842510512 742.3333768157896 392.5205242361248L742.3333768157896 392.5205242361248Q742.3333768157896 378.86582526481584 741.0425337815743 371.82669684386036Q739.7315213249494 364.76739900049535 737.2506823685668 362.30672946652237Q734.7900128345939 359.8460599325494 731.4418887145979 359.8460599325494L731.4418887145979 359.8460599325494Q728.396305930746 359.8460599325494 726.0768223536404 362.02435755278776Q723.7573387765348 364.20265517302613 722.5270040095482 370.15263478386237Q721.2764998201523 376.10261439469866 721.2764998201523 387.437829788902L721.2764998201523 387.437829788902Q721.2764998201523 400.931173380934 722.6681899664156 407.90979353466065Q724.0397106902694 414.86824426597764 726.520549646652 417.3490832223602Q728.981219180625 419.8097527563331 732.329343300621 419.8097527563331ZM818.2914216103977 428.3817572804193L779.9493496097207 428.3817572804193Q776.6213949121343 425.03363316042334 776.6213949121343 420.53585196307927L776.6213949121343 420.53585196307927Q780.977990152611 420.53585196307927 782.7932381694762 418.6600956789851Q784.6084861863416 416.7641699724814 784.6084861863416 412.54876068887194L784.6084861863416 412.54876068887194L784.6084861863416 364.48502708676074L775.7339403261112 364.48502708676074L775.7339403261112 355.48946469207266Q778.9408784892399 354.7633654853266 780.8166347733342 353.73472494243623Q782.7125604798379 352.7262538219555 784.3059448501973 351.55642732219786L784.3059448501973 351.55642732219786Q783.7210316003185 348.22847262461147 783.438659686584 345.4652617544943Q783.1562877728494 342.7020508843771 783.1562877728494 339.0715548506465L783.1562877728494 339.0715548506465Q783.1562877728494 323.9646574658453 790.9820236677798 316.4818017518783Q798.8279289851198 309.01911546032096 811.89771470655 309.01911546032096L811.89771470655 309.01911546032096Q818.8763348602765 309.01911546032096 823.5959797041263 311.842834597667Q828.3156245479762 314.666553735013 830.7157858147202 318.7407770617551Q833.0957776590548 322.81500038849725 833.0957776590548 326.44549642222785L833.0957776590548 326.44549642222785Q833.0957776590548 331.8105627831853 830.2720585217087 335.4410588169159Q827.4483393843626 339.0715548506465 822.6480168508745 339.0715548506465L822.6480168508745 339.0715548506465Q818.2914216103977 339.0715548506465 814.9432974904017 335.94529437715624Q811.6153427928153 332.819033903666 811.6153427928153 328.76497999933355L811.6153427928153 328.76497999933355Q811.6153427928153 327.01024024969706 812.3414419995614 324.77143436222985Q813.0675412063075 322.51245905235305 815.9719380332921 320.3341614321147L815.9719380332921 320.3341614321147Q815.5282107402805 319.60806222536854 814.4390619301613 319.1038266651282Q813.3499131200422 318.59959110488785 812.4826279564288 318.59959110488785L812.4826279564288 318.59959110488785Q810.1631443793232 318.59959110488785 808.126032715952 320.83839699235506Q806.088921052581 323.09737230223186 804.8585862855945 326.72786833596246Q803.628251518608 330.35836436969305 803.628251518608 334.4325876964352L803.628251518608 334.4325876964352Q803.628251518608 338.7891829369119 804.4148589925829 342.7020508843771Q805.2216358889676 346.6149188318423 806.3914623887252 349.01508009858645Q807.5411194660733 351.4152413653306 808.4084046296866 351.4152413653306L808.4084046296866 351.4152413653306L822.3656449371398 351.4152413653306Q822.3656449371398 354.60201010604965 821.9219176441284 358.3131838294187Q821.4781903511168 362.02435755278776 819.8848059807573 364.48502708676074L819.8848059807573 364.48502708676074L807.5411194660733 364.48502708676074L807.5411194660733 411.23774823224704Q807.5411194660733 414.44468639537575 808.5697600089635 416.54230632597563Q809.5782311294442 418.6600956789851 812.6238139132961 419.5878891098274Q815.6693966971478 420.53585196307927 821.6395457303937 420.53585196307927L821.6395457303937 420.53585196307927Q821.6395457303937 425.03363316042334 818.2914216103977 428.3817572804193L818.2914216103977 428.3817572804193ZM857.359592817821 429.3902284009L857.359592817821 429.3902284009Q851.2482578277078 429.3902284009 846.165563380485 427.1514225134328Q841.0828689332621 424.892447203556 837.9767778821814 419.38619488573124Q834.8505174086912 413.8597731454969 834.8505174086912 404.27929750093L834.8505174086912 404.27929750093L834.8505174086912 364.3438411298934L825.6935996347262 364.3438411298934L825.6935996347262 355.48946469207266Q829.6266370046011 354.90455144219385 833.0957776590548 350.5479562017171Q836.585087735918 346.1913609612404 839.1264349595294 339.7976540573926Q841.6677821831408 333.40394715354483 842.393881389887 327.01024024969706L842.393881389887 327.01024024969706Q845.015906303137 326.5866823790952 847.1942039233753 326.5866823790952L847.1942039233753 326.5866823790952Q853.0029975773442 326.5866823790952 855.2418034648114 329.9146370766816Q857.5007787746882 333.26276119667756 857.5007787746882 336.167158023662L857.5007787746882 336.167158023662L857.5007787746882 351.4152413653306L874.3422464867164 351.4152413653306Q874.3422464867164 354.90455144219385 873.9791968833432 358.3131838294187Q873.6161472799703 361.72181621664356 872.0227629096106 364.3438411298934L872.0227629096106 364.3438411298934L857.7831506884228 364.3438411298934L857.7831506884228 405.28776862141075Q857.7831506884228 409.9469051980317 859.6790763949266 411.4596118787528Q861.5750021014304 412.99248798188347 864.4793989284149 412.99248798188347L864.4793989284149 412.99248798188347Q867.3837957553993 412.99248798188347 870.3487008496127 411.4596118787528Q873.3337753662355 409.9469051980317 875.0683456934624 407.90979353466065L875.0683456934624 407.90979353466065Q876.6617300638219 409.22080599128554 877.2466433137007 411.762153214897Q877.8315565635795 414.3035004385084 877.8315565635795 415.5943434727237L877.8315565635795 415.5943434727237Q877.8315565635795 418.80128163585243 875.6532589433413 421.9880503765715Q873.4749613231028 425.1949885397002 868.8965024361204 427.29260847030014Q864.3180435491379 429.3902284009 857.359592817821 429.3902284009ZM918.4931121413623 423.01669091946184L906.5931529196898 423.01669091946184L884.2252634674275 368.70043637037014Q882.4705237177909 364.48502708676074 881.1796806835756 362.30672946652237Q879.8686682269507 360.128431846284 875.3708870296066 360.128431846284L875.3708870296066 360.128431846284Q875.3708870296066 357.667762312311 876.0969862363528 355.32810931279573Q876.8230854430989 353.0086257356901 878.4164698134584 351.27405540846325L878.4164698134584 351.27405540846325L912.6843184873934 351.27405540846325Q916.1736285642568 355.0457373990611 916.1736285642568 360.128431846284L916.1736285642568 360.128431846284Q912.5431325305261 360.128431846284 911.0102564273953 362.02435755278776Q909.4975497466743 363.90011383688187 909.4975497466743 366.8045106638664L909.4975497466743 366.8045106638664Q909.4975497466743 367.8331512067567 909.6387357035416 369.0634859737432Q909.7799216604088 370.2938207407297 910.2236489534204 371.6048331973546L910.2236489534204 371.6048331973546L923.7169925454524 410.95537631851244L933.2974681900193 369.7089074908509Q933.7411954830309 367.6717958274798 933.7411954830309 366.2195974139876L933.7411954830309 366.2195974139876Q933.7411954830309 360.128431846284 926.621389372437 360.128431846284L926.621389372437 360.128431846284Q926.621389372437 357.667762312311 927.2063026223158 355.32810931279573Q927.7912158721946 353.0086257356901 929.3846002425541 351.27405540846325L929.3846002425541 351.27405540846325L957.4200973919183 351.27405540846325Q959.0134817622778 353.0086257356901 959.6589032793855 355.32810931279573Q960.3244942189027 357.667762312311 960.3244942189027 360.128431846284L960.3244942189027 360.128431846284Q956.6939981851721 360.128431846284 954.7173947890299 361.86300217351084Q952.7609608152974 363.6177419231473 951.4499483586724 367.6717958274798L951.4499483586724 367.6717958274798L934.9110219827885 419.2248395064543Q928.5173150789408 439.8581586314899 921.175645321841 449.4386342760568Q913.854144987151 459.01910992062363 902.3777436360805 459.01910992062363L902.3777436360805 459.01910992062363Q893.3620118189828 459.01910992062363 888.8642306216387 455.2474279300257Q884.3664494242947 451.47574593942784 884.3664494242947 446.2518655353377L884.3664494242947 446.2518655353377Q884.3664494242947 442.7625554584744 886.0405114842928 439.99934458835725Q887.7145735442906 437.23613371824007 890.3164290351309 436.08647664089204L890.3164290351309 436.08647664089204Q894.2494664050058 440.72544379510333 901.934016343069 440.72544379510333L901.934016343069 440.72544379510333Q906.2906115835456 440.72544379510333 910.8690704705281 436.4495262442651Q915.4475293575106 432.1534392710172 918.4931121413623 423.01669091946184L918.4931121413623 423.01669091946184ZM1032.9344148935147 428.3817572804193L990.6593055229629 428.3817572804193Q987.3313508253765 424.6100752898214 987.3313508253765 419.08365354958704L987.3313508253765 419.08365354958704Q992.272859315732 419.08365354958704 994.3704792463319 417.4902691792275Q996.4680991769318 415.8968848088679 996.4680991769318 411.82266148212585L996.4680991769318 411.82266148212585L996.4680991769318 343.56933604799053Q996.4680991769318 339.515282143658 994.3704792463319 337.84122008366006Q992.272859315732 336.167158023662 987.3313508253765 336.167158023662L987.3313508253765 336.167158023662Q987.3313508253765 333.7064884896891 988.1986359889898 331.30632722294496Q989.0659211526033 328.9061659562008 990.5181195660956 327.01024024969706L990.5181195660956 327.01024024969706Q1004.7577317872834 327.01024024969706 1013.3297363113695 326.5060046894567Q1021.8815714130461 326.00176912921637 1027.9929064031594 326.00176912921637L1027.9929064031594 326.00176912921637Q1043.382175701695 326.00176912921637 1052.4584157860215 329.77345111981424Q1061.5346558703482 333.5451331104121 1065.5282015074517 340.8868028675118Q1069.5217471445553 348.22847262461147 1069.5217471445553 358.81741938965905L1069.5217471445553 358.81741938965905Q1069.5217471445553 368.2567090773586 1064.8021023007054 375.96142843783133Q1060.082457456856 383.64597837589446 1050.5624900795178 388.08325130600963Q1041.0626921245894 392.5205242361248 1026.3995220327997 392.5205242361248L1026.3995220327997 392.5205242361248L1020.2881870426866 392.5205242361248L1020.2881870426866 405.28776862141075Q1020.2881870426866 410.95537631851244 1021.518521809673 413.9404508351354Q1022.7690259990692 416.9053559293487 1026.238166653523 417.99450473946786Q1029.7274767303861 419.08365354958704 1036.1211836342338 419.08365354958704L1036.1211836342338 419.08365354958704Q1036.1211836342338 424.75126124668867 1032.9344148935147 428.3817572804193L1032.9344148935147 428.3817572804193ZM1024.0598690332845 380.9029369281869L1024.0598690332845 380.9029369281869Q1030.8973032301437 380.9029369281869 1034.8908488672473 378.78514757517735Q1038.884394504351 376.6875276445775 1040.921506167722 373.3394035245814Q1042.9384484086836 370.0114488269951 1043.6040393482008 366.0179031898914Q1044.2494608653085 362.02435755278776 1044.2494608653085 358.39386151905717L1044.2494608653085 358.39386151905717Q1044.2494608653085 352.8674397788228 1042.5753988053107 348.06711724533454Q1040.921506167722 343.2869641342559 1036.9279605306183 340.3825673072714Q1032.9344148935147 337.47817048028696 1025.6734228260534 337.47817048028696L1025.6734228260534 337.47817048028696Q1022.4664846629248 337.47817048028696 1020.2881870426866 338.0630837301658L1020.2881870426866 338.0630837301658L1020.2881870426866 380.6003955920427Q1021.3168275855768 380.74158154890995 1022.1841127491903 380.82225923854844Q1023.0513979128037 380.9029369281869 1024.0598690332845 380.9029369281869ZM1094.067934217056 339.35392676438113L1094.067934217056 339.35392676438113Q1087.8154132700756 339.35392676438113 1084.1244089691163 335.6629224634217Q1080.4132352457473 331.9517487400526 1080.4132352457473 325.7193972154817L1080.4132352457473 325.7193972154817Q1080.4132352457473 319.60806222536854 1084.2655949259836 315.8363802347707Q1088.1179546062199 312.06469824417275 1094.3503061307906 312.06469824417275L1094.3503061307906 312.06469824417275Q1100.7440130346386 312.06469824417275 1104.4551867580076 315.8363802347707Q1108.146191058967 319.60806222536854 1108.146191058967 325.7193972154817L1108.146191058967 325.7193972154817Q1108.146191058967 331.9517487400526 1104.2938313787308 335.6629224634217Q1100.461641120904 339.35392676438113 1094.067934217056 339.35392676438113ZM1110.6270300153496 428.3817572804193L1077.7912103324975 428.3817572804193Q1076.1978259621378 426.78837291005976 1075.3305407985245 424.892447203556Q1074.463255634911 423.01669091946184 1074.463255634911 420.53585196307927L1074.463255634911 420.53585196307927Q1078.6786649185203 420.53585196307927 1080.6956071594818 418.720603946214Q1082.7327188228528 416.9053559293487 1082.7327188228528 412.54876068887194L1082.7327188228528 412.54876068887194L1082.7327188228528 370.435006697597Q1082.7327188228528 366.66332470699905 1080.9174708059877 364.76739900049535Q1079.1022227891222 362.8916427164012 1073.152243178286 362.8916427164012L1073.152243178286 362.8916427164012L1073.152243178286 356.4979358125534Q1075.3305407985245 355.18692335592846 1079.8283219958685 353.51286129593046Q1084.3261031932125 351.85896865834206 1089.6306612869412 350.68914215858445Q1094.9352193806694 349.51931565882677 1099.1506286642789 349.51931565882677L1099.1506286642789 349.51931565882677Q1102.4785833618653 349.51931565882677 1103.9307817753577 351.0521917619575Q1105.38298018885 352.5850678650882 1105.38298018885 356.2155638988188L1105.38298018885 356.2155638988188L1105.38298018885 412.68994664573927Q1105.38298018885 417.04654188621595 1107.561277809088 418.80128163585243Q1109.7395754293266 420.53585196307927 1113.954984712936 420.53585196307927L1113.954984712936 420.53585196307927Q1113.954984712936 423.01669091946184 1113.0876995493227 424.892447203556Q1112.2204143857093 426.78837291005976 1110.6270300153496 428.3817572804193L1110.6270300153496 428.3817572804193ZM1157.2385652039688 428.3817572804193L1124.261559564249 428.3817572804193Q1122.6681751938895 426.78837291005976 1121.7202123406375 424.892447203556Q1120.7924189097953 423.01669091946184 1120.7924189097953 420.6770379199466L1120.7924189097953 420.6770379199466Q1125.149014150272 420.6770379199466 1127.0247704343662 418.80128163585243Q1128.92069614087 416.9053559293487 1128.92069614087 412.68994664573927L1128.92069614087 412.68994664573927L1128.92069614087 370.2938207407297Q1128.92069614087 366.5221387501318 1126.8029067878604 364.76739900049535Q1124.7052868572605 363.03282867326845 1119.1788651170264 363.03282867326845L1119.1788651170264 363.03282867326845L1119.1788651170264 356.4979358125534Q1122.5269892370222 354.60201010604965 1127.6903613738834 353.0086257356901Q1132.8335640883352 351.4152413653306 1137.694394889052 350.4672785120787Q1142.575395112179 349.51931565882677 1145.1772506030193 349.51931565882677L1145.1772506030193 349.51931565882677Q1148.222833386871 349.51931565882677 1150.1994367830132 351.4152413653306Q1152.1558707567456 353.3111670718343 1152.4382426704806 359.5435185964052L1152.4382426704806 359.5435185964052Q1156.068738704211 355.0457373990611 1161.6556687116743 352.282526528944Q1167.262768141547 349.51931565882677 1174.6649461658756 349.51931565882677L1174.6649461658756 349.51931565882677Q1184.8303350603214 349.51931565882677 1189.973537774773 354.6826877956881Q1195.1369099116341 359.8460599325494 1195.1369099116341 372.18974644723346L1195.1369099116341 372.18974644723346L1195.1369099116341 411.82266148212585Q1195.1369099116341 418.94246759271977 1202.1155300653609 420.25348004934466L1202.1155300653609 420.25348004934466L1202.2567160222281 424.4688893329541Q1200.8045176087358 425.92108774644635 1197.5975794456072 427.01023655656553Q1194.4108107048883 428.0993853666847 1190.699636981519 428.6641291941539Q1187.0086326805595 429.24904244403274 1183.8016945174309 429.24904244403274L1183.8016945174309 429.24904244403274Q1177.5693429928601 429.24904244403274 1174.584268476237 426.92955886692704Q1171.6193633820237 424.6100752898214 1171.6193633820237 419.5273808425986L1171.6193633820237 419.5273808425986L1171.6193633820237 374.2066886881949Q1171.6193633820237 368.2567090773586 1168.9973384687737 365.93722550025296Q1166.375313555524 363.6177419231473 1162.6036315649262 363.6177419231473L1162.6036315649262 363.6177419231473Q1156.6536519540898 363.6177419231473 1152.5794286273476 368.39789503422594L1152.5794286273476 368.39789503422594L1152.5794286273476 412.68994664573927Q1152.5794286273476 416.9053559293487 1154.3946766442132 418.80128163585243Q1156.2099246610783 420.6770379199466 1160.566519901555 420.6770379199466L1160.566519901555 420.6770379199466Q1160.566519901555 425.03363316042334 1157.2385652039688 428.3817572804193L1157.2385652039688 428.3817572804193ZM1276.6012070240672 429.83395569391155L1276.6012070240672 429.83395569391155Q1268.6141157498596 429.83395569391155 1263.833962638781 426.4253233066867Q1259.0336401052928 423.01669091946184 1256.04856558867 417.7726410929621Q1253.0836604944566 412.54876068887194 1250.764176917351 407.1836943279145L1250.764176917351 407.1836943279145Q1248.4245239178358 401.65727258768015 1245.8226684269953 397.1594913903361Q1243.2006435137455 392.6617101929921 1238.985234230136 391.0683258226326L1238.985234230136 391.0683258226326L1238.985234230136 413.2748598956181Q1238.985234230136 417.4902691792275 1240.8004822470016 419.3055171960928Q1242.6157302638667 421.12076521295813 1247.1336808836204 421.12076521295813L1247.1336808836204 421.12076521295813Q1247.1336808836204 423.4402487900638 1246.1857180303687 425.33617449656754Q1245.2377551771165 427.21193078066165 1243.6443708067573 428.8254845734308L1243.6443708067573 428.8254845734308L1211.6960057099277 428.8254845734308Q1208.2066956330646 425.7597323671694 1208.2066956330646 421.12076521295813L1208.2066956330646 421.12076521295813Q1212.563290873541 421.12076521295813 1214.3785388904064 419.3055171960928Q1216.1937869072717 417.4902691792275 1216.1937869072717 413.2748598956181L1216.1937869072717 413.2748598956181L1216.1937869072717 334.57377365330245Q1216.1937869072717 331.22564953330647 1214.2978612007678 329.26921555957387Q1212.4221049166738 327.31278158584126 1206.4721253058374 327.31278158584126L1206.4721253058374 327.31278158584126L1206.4721253058374 321.5039879318723Q1210.102621339568 319.60806222536854 1214.9634521402854 318.014677855009Q1219.8242829410024 316.4212934846495 1224.6246054744906 315.39265294175914Q1229.4047585855692 314.38418182127845 1232.450341369421 314.38418182127845L1232.450341369421 314.38418182127845Q1235.9396514462842 314.38418182127845 1237.4725275494152 315.9170579244091Q1238.985234230136 317.4297646051302 1238.985234230136 321.2014465957281L1238.985234230136 321.2014465957281L1238.985234230136 385.8242759961328L1254.9594167785508 369.28534962024895Q1255.8468713645739 368.39789503422594 1256.774664795416 367.1675602672394Q1257.722627648668 365.93722550025296 1257.722627648668 364.9287543797722L1257.722627648668 364.9287543797722Q1257.722627648668 362.8916427164012 1254.5963671751779 361.1369029667647Q1251.490276124097 359.40233263953786 1248.5858792971126 359.40233263953786L1248.5858792971126 359.40233263953786Q1248.5858792971126 354.1784522354477 1251.913833994699 350.5479562017171L1251.913833994699 350.5479562017171L1284.5882982982744 350.5479562017171Q1286.3430380479108 352.282526528944 1286.8472736081512 354.60201010604965Q1287.3515091683917 356.9416631055649 1287.3515091683917 359.40233263953786L1287.3515091683917 359.40233263953786Q1283.4386412209265 359.40233263953786 1281.4620378247841 360.6326674065244Q1279.5056038510515 361.86300217351084 1277.9122194806919 363.31520058700306L1277.9122194806919 363.31520058700306L1255.8468713645739 385.0981767893867Q1261.2119377255312 385.98563137540975 1264.842433759262 388.58748686625Q1268.4729297929925 391.20951177949985 1271.6596985337114 396.87711947660154L1271.6596985337114 396.87711947660154Q1276.1776491534652 404.86421075080887 1278.7189963770766 409.4225002153817Q1281.260343600688 414.0009591023642 1283.4991494881551 416.32044267946986Q1285.758124798032 418.6600956789851 1289.5298067886301 419.95093871320046L1289.5298067886301 419.95093871320046L1289.6709927454972 423.4402487900638Q1289.2474348748956 426.48583157391556 1285.6169388411645 428.15989363391355Q1281.9864428074343 429.83395569391155 1276.6012070240672 429.83395569391155ZM1329.3240772027993 430.277682986923L1329.3240772027993 430.277682986923Q1319.0175023514862 430.277682986923 1311.030411077279 425.8404100568079Q1303.0433198030714 421.4031371266927 1298.6060468729565 412.7706243353777Q1294.1687739428412 404.1381115440627 1294.1687739428412 391.3506977363672L1294.1687739428412 391.3506977363672Q1294.1687739428412 377.69599876505816 1298.827910519462 368.39789503422594Q1303.4668776736735 359.11996072580325 1311.756510284025 354.31963819231504Q1320.025973471967 349.51931565882677 1330.7762756162915 349.51931565882677L1330.7762756162915 349.51931565882677Q1341.2240364244717 349.51931565882677 1349.1506194314502 354.03726627858043Q1357.057033016019 358.53504747592444 1361.4943059461343 367.30874622410676Q1365.91140945384 376.10261439469866 1365.91140945384 389.0312141592615L1365.91140945384 389.0312141592615Q1365.91140945384 402.52455775129357 1361.2724422996284 411.762153214897Q1356.6133057230077 420.9795792560908 1348.343842535066 425.61854641030214Q1340.0743793471238 430.277682986923 1329.3240772027993 430.277682986923ZM1330.4737342801473 419.8097527563331L1330.4737342801473 419.8097527563331Q1333.5394864864084 419.8097527563331 1335.778292373876 417.6314551360948Q1338.0372676837528 415.45315751585645 1339.267602450739 409.58385559465864Q1340.4979372177254 403.6943842510512 1340.4979372177254 392.5205242361248L1340.4979372177254 392.5205242361248Q1340.4979372177254 378.86582526481584 1339.1869247611007 371.82669684386036Q1337.8960817268853 364.76739900049535 1335.4152427705026 362.30672946652237Q1332.95457323653 359.8460599325494 1329.606449116534 359.8460599325494L1329.606449116534 359.8460599325494Q1326.560866332682 359.8460599325494 1324.2413827555765 362.02435755278776Q1321.9218991784705 364.20265517302613 1320.6713949890745 370.15263478386237Q1319.4410602220883 376.10261439469866 1319.4410602220883 387.437829788902L1319.4410602220883 387.437829788902Q1319.4410602220883 400.931173380934 1320.8327503683513 407.90979353466065Q1322.204271092205 414.86824426597764 1324.6649406261781 417.3490832223602Q1327.1457795825609 419.8097527563331 1330.4737342801473 419.8097527563331Z " fill="#3366ff" transform="matrix(0.6405978913652742,0,0,0.6405978913652742,0,53.99817162674992)"/></g></svg>